<?xml version="1.0" encoding="utf-8"?>
<!-- Generator: Adobe Illustrator 21.0.2, SVG Export Plug-In . SVG Version: 6.00 Build 0)  -->
<svg version="1.1" id="Layer_1" xmlns="http://www.w3.org/2000/svg" xmlns:xlink="http://www.w3.org/1999/xlink" x="0px" y="0px"
	 viewBox="0 0 91 91" style="enable-background:new 0 0 91 91;" xml:space="preserve">
<style type="text/css">
	.st0{fill:#7EC539;}
	.st1{fill:none;stroke:#FFFFFF;stroke-width:2;stroke-linejoin:round;stroke-miterlimit:10;}
	.st2{fill:none;stroke:#FFFFFF;stroke-width:2;stroke-linecap:round;stroke-linejoin:round;stroke-miterlimit:10;}
</style>
<title>Artboard 1</title>
<ellipse class="st0" cx="45.5" cy="45.5" rx="44" ry="44.5"/>
<g>
	<circle class="st1" cx="45.7" cy="28.5" r="5.7"/>
	<circle class="st1" cx="61.8" cy="30.8" r="3.4"/>
	<circle class="st1" cx="29.6" cy="30.8" r="3.4"/>
	<path class="st2" d="M57.2,62.3c8.8,0.7,14.9,2.3,14.9,4.1c0,2.5-11.8,4.6-26.4,4.6s-26.4-2.1-26.4-4.6c0-1.8,6.1-3.4,14.9-4.1"/>
	<path class="st1" d="M51.5,59.5H40V44.6c0-3.2,2.6-5.7,5.7-5.7c3.2,0,5.7,2.6,5.7,5.7L51.5,59.5L51.5,59.5z"/>
	<path class="st1" d="M65.3,54.9h-6.9V42.3c0-1.9,1.5-3.4,3.4-3.4s3.4,1.5,3.4,3.4L65.3,54.9L65.3,54.9z"/>
	<path class="st1" d="M33.1,54.9h-6.9V42.3c0-1.9,1.5-3.4,3.4-3.4s3.4,1.5,3.4,3.4L33.1,54.9L33.1,54.9z"/>
</g>
</svg>
